<svg width="12" height="11" viewBox="0 0 12 11" fill="none" xmlns="http://www.w3.org/2000/svg">
<path d="M5.04894 0.781236C5.3483 -0.140075 6.6517 -0.140073 6.95106 0.781238L7.5716 2.69107C7.70547 3.10309 8.08943 3.38205 8.52265 3.38205H10.5308C11.4995 3.38205 11.9023 4.62167 11.1186 5.19107L9.49395 6.37141C9.14347 6.62605 8.99681 7.07742 9.13068 7.48944L9.75122 9.39927C10.0506 10.3206 8.9961 11.0867 8.21238 10.5173L6.58778 9.33697C6.2373 9.08232 5.7627 9.08232 5.41221 9.33697L3.78761 10.5173C3.0039 11.0867 1.94942 10.3206 2.24878 9.39927L2.86932 7.48944C3.00319 7.07742 2.85653 6.62605 2.50604 6.37141L0.881445 5.19107C0.0977311 4.62167 0.500508 3.38205 1.46923 3.38205H3.47735C3.91057 3.38205 4.29453 3.10309 4.4284 2.69107L5.04894 0.781236Z" fill="#4A54EB"/>
</svg>
