<svg
      width="25"
      height="15"
      viewBox="0 0 25 15"
      fill="none"
      xmlns="http://www.w3.org/2000/svg"
    >
      <path
        d="M1.7499 15C1.30511 15 0.86032 14.8384 0.509169 14.4921C-0.169723 13.8226 -0.169723 12.7145 0.509169 12.045L8.00039 4.65756C8.37495 4.28819 8.86656 4.1035 9.405 4.14967C9.92002 4.19584 10.3882 4.47287 10.6925 4.9115L13.2442 8.69758L21.5548 0.502116C22.2337 -0.167372 23.3574 -0.167372 24.0363 0.502116C24.7152 1.1716 24.7152 2.27972 24.0363 2.94921L14.2041 12.6452C13.8295 13.0146 13.3379 13.1993 12.7995 13.1531C12.2844 13.107 11.8162 12.8299 11.5119 12.3913L8.9602 8.60523L2.99064 14.4921C2.63948 14.8384 2.19469 15 1.7499 15Z"
        fill="white"
      />
      <path
        d="M22.7922 8.18182C21.8338 8.18182 21.039 7.38701 21.039 6.42857V3.50649H18.1169C17.1585 3.50649 16.3636 2.71169 16.3636 1.75325C16.3636 0.794805 17.1585 0 18.1169 0H22.7922C23.7507 0 24.5455 0.794805 24.5455 1.75325V6.42857C24.5455 7.38701 23.7507 8.18182 22.7922 8.18182Z"
        fill="white"
      />
    </svg>